<?xml version="1.0" encoding="UTF-8"?>
<svg id="_레이어_1" data-name="레이어 1" xmlns="http://www.w3.org/2000/svg" viewBox="0 0 73.05 169.06">
  <defs>
    <style>
      .cls-1 {
        fill: #fff;
      }
    </style>
  </defs>
  <g>
    <polygon class="cls-1" points="73.05 104.45 49.49 80.19 54.32 80.19 54.32 75.3 35.62 75.3 35.59 73.92 51.63 73.92 51.63 66.44 54.19 66.44 54.19 61.56 18.74 61.56 18.74 66.44 20.99 66.44 20.99 75.3 18.87 75.3 18.87 80.19 23.56 80.19 0 104.45 .47 109.78 .53 109.78 3.27 137.29 6.92 137.29 17.5 163.65 17.49 163.65 37.41 169.06 56.58 163.65 56.5 163.65 66.22 137.21 70.71 137.21 73.02 104.75 73.05 104.45"/>
    <polygon class="cls-1" points="25.15 40.89 25.15 40.9 25.15 40.9 26.81 55.43 30.6 55.43 29.1 60.41 43.6 60.41 42.15 55.43 45.94 55.43 47.59 40.9 47.6 40.9 47.6 40.89 47.6 40.85 47.58 40.85 43.81 29.36 28.63 29.36 25.17 40.85 25.15 40.85 25.15 40.89"/>
  </g>
  <rect class="cls-1" x="30.5" width="12.11" height="12.62"/>
</svg>